<?xml version="1.0" encoding="utf-8"?>
<!-- Generator: Adobe Illustrator 17.1.0, SVG Export Plug-In . SVG Version: 6.00 Build 0)  -->
<!DOCTYPE svg PUBLIC "-//W3C//DTD SVG 1.0//EN" "http://www.w3.org/TR/2001/REC-SVG-20010904/DTD/svg10.dtd">
<svg version="1.0" id="Layer_1" xmlns="http://www.w3.org/2000/svg" xmlns:xlink="http://www.w3.org/1999/xlink" x="0px" y="0px"
	 viewBox="0 0 50 50" style="enable-background:new 0 0 50 50;" xml:space="preserve">
<path d="M34,0v16h16V0H34z M48,14H36V2h12V14z M12,4H4v8h8V4z M10,10H6V6h4V10z M16,0H0v16h16V0z M14,14H2V2h12V14z M46,19h-6v6h4v2
	h-7v-8H26v-4h4V7h-4V3h-6v6h4v4h-4v6H9v4H5v6h6v-4h5v4h6v-8h2v4h7v4h4v2h-3v4h-2v-4h-6v6h4v2h-4v6h6v-4h4v-4h2v7h-4v6h6v-4h2v4h6v-6
	h-4v-9h-4v-2h12V23h-4V19z M26,9h2v4h-2V9z M9,27H7v-2h2V27z M20,27h-2v-4h-7v-2h9V27z M24,19h-2v-4h2V19z M28,43h-2v-2h2V43z
	 M28,35h-2v-2h2V35z M32,39h-2v-2h2V39z M36,48h-2v-2h2V48z M42,23v-2h2v2H42z M24,7h-2V5h2V7z M33,27v-4h-7v-2h9v6H33z M36,35h-2
	v-2h2V35z M42,46h2v2h-2V46z M40,37v7h-2v-7H40z M48,25v6H38h-1v-2h9v-4H48z M0,50h16V34H0V50z M2,36h12v12H2V36z M46,4h-8v8h8V4z
	 M44,10h-4V6h4V10z M4,46h8v-8H4V46z M6,40h4v4H6V40z"/>
</svg>
